<?xml version="1.0" encoding="UTF-8"?>
<svg width="128" height="128" xmlns="http://www.w3.org/2000/svg" viewBox="0 0 24 24" fill="#ffffff">
  <path d="M12 0C5.373 0 0 5.373 0 12s5.373 12 12 12 12-5.373 12-12S18.627 0 12 0zm5.504 17.34c-.227.367-.708.486-1.075.26-2.946-1.8-6.654-2.205-11.02-1.21a.78.78 0 0 1-.937-.59.78.78 0 0 1 .59-.94c4.78-1.09 8.882-.625 12.182 1.4.367.226.486.708.26 1.08zm1.47-3.27c-.286.464-.893.61-1.357.324-3.374-2.075-8.524-2.677-12.518-1.464a1.014 1.014 0 1 1-.59-1.94c4.566-1.39 10.24-.72 14.142 1.7.464.287.61.894.323 1.38zm.127-3.4C15.073 8.243 8.36 8.025 4.733 9.13a1.215 1.215 0 1 1-.706-2.33c4.17-1.265 11.59-1.013 15.752 1.486a1.215 1.215 0 1 1-1.677 2.084z"/>
</svg>
